/* XPM */
static char *ed2b2579fab845f1e05f8cb0ce6a75bdqgYHtCzkmAIttfKh[] = {
/* columns rows colors chars-per-pixel */
"32 32 130 2 ",
"   c None",
".  c #030303",
"X  c #080707",
"o  c #090708",
"O  c #0B0A0A",
"+  c #110E0C",
"@  c #15120E",
"#  c #131212",
"$  c #1B1412",
"%  c #1D1914",
"&  c #1D1D1D",
"*  c #241D16",
"=  c #221E1C",
"-  c #341E19",
";  c #23211F",
":  c #2C221D",
">  c #32251D",
",  c #39201A",
"<  c #362A1E",
"1  c #3A2C1F",
"2  c #242322",
"3  c #2B2423",
"4  c #2D2A26",
"5  c #2B2B2B",
"6  c #312321",
"7  c #3B2C20",
"8  c #302E2C",
"9  c #44241E",
"0  c #472520",
"q  c #472921",
"w  c #4D2B25",
"e  c #4C2D28",
"r  c #532720",
"t  c #5B2B25",
"y  c #443321",
"u  c #4E3722",
"i  c #4E3924",
"p  c #553B24",
"a  c #5B3F25",
"s  c #5B342E",
"d  c #662E25",
"f  c #6D2E26",
"g  c #722D24",
"h  c #7D2D26",
"j  c #772F28",
"k  c #613027",
"l  c #7D372F",
"z  c #654426",
"x  c #6D4927",
"c  c #744C27",
"v  c #7A4F27",
"b  c #724B29",
"n  c #7E5127",
"m  c #7D5229",
"M  c gray28",
"N  c #4D4746",
"B  c #4B4948",
"V  c gray34",
"C  c #5B5A5A",
"Z  c #7B514C",
"A  c #8A2E27",
"S  c #943028",
"D  c #B62E29",
"F  c #B92E2B",
"G  c #A6322B",
"H  c #AB322A",
"J  c #C82B28",
"K  c #D32728",
"L  c #DB2529",
"P  c #D52E2F",
"I  c #DA2A2B",
"U  c #CF3128",
"Y  c #C03F2C",
"T  c #C9382D",
"R  c #DE3032",
"E  c #DB3B31",
"W  c #E22329",
"Q  c #E82229",
"!  c #E3292F",
"~  c #E12F31",
"^  c #E92C33",
"/  c #EA3236",
"(  c #E13E30",
")  c #EA333A",
"_  c #EA393F",
"`  c #914B2B",
"'  c #895529",
"]  c #945C29",
"[  c #9B5F28",
"{  c #A94B2A",
"}  c #B04026",
"|  c #B44528",
" . c #CE4B39",
".. c #D84B3B",
"X. c #E24535",
"o. c #E94038",
"O. c #E6523E",
"+. c #EB3D43",
"@. c #974B45",
"#. c #9C4B43",
"$. c #936560",
"%. c #B86F69",
"&. c #DF5759",
"*. c #EB4147",
"=. c #EC454A",
"-. c #EC494F",
";. c #ED4F55",
":. c #ED5156",
">. c #ED5359",
",. c #EE585D",
"<. c #DA654E",
"1. c #D46650",
"2. c #DA6A54",
"3. c #D5715B",
"4. c #DF745A",
"5. c #ED5E63",
"6. c #E27960",
"7. c #D2846D",
"8. c #DA856E",
"9. c #DE9984",
"0. c #E7A692",
"q. c #D5B2A4",
"w. c #DCB7AB",
"e. c #DCBBAF",
"r. c #EBBBAA",
"t. c #E7CFC5",
"y. c #F2DBCF",
"u. c #EDDCD5",
"i. c #F8F0EE",
"p. c #FAF9F9",
/* pixels */
"                                          . . . .               ",
"                                    . . . . . X . o             ",
"                                    . . @ : y z @ & #           ",
"                                . . . * [ [ [ [ * 2 &           ",
"                            . . . . . @ [ [ [ [ > 2 & .         ",
"                            . o % < i ' [ [ [ [ y % 2 .         ",
"                        . . . O [ [ [ [ [ [ [ [ p # 2 .         ",
"                    . . . . o o [ [ [ [ n 7 3 ; # 4 2 .         ",
"                    . . = y b ] p % c [ c O 5 & & # o .         ",
"                  . . . [ [ [ [ i X i [ ] X 2 # X .             ",
"                . . o o ] [ v p > X < [ [ @ 2 +                 ",
"                . X p [ a O O X X X > [ [ % ; #                 ",
"              . . . p [ z X % # % ] [ < # @ 5 X                 ",
"            . . X 7 x 1 * X # . @ [ [ : ; & & .                 ",
"          . . . X [ ' q d 9 o * i v y % ; # .                   ",
"        . . 9 h G { } Q Q Q l ' [ y X % & o                     ",
"      . . - L Q Q Q Q Q Q Q W ` [ a X X # M 8                   ",
"    . . o L Q Q Q Q Q Q Q Q Q U [ ' s ` $.C C M &               ",
"    . . A Q Q Q Q Q Q Q Q Q Q L | Y *.,.5.%.V V 8               ",
"    . X D Q Q Q Q Q Q Q Q Q Q Q ^ *.;.,.,.5.&.3 & #             ",
"    . . S Q Q Q Q Q Q Q Q Q Q ^ *.=.-.:.:.*.Q - 3 & .           ",
"    . . g W T  .Q Q Q Q Q ^ / _ +.*.=.+./ Q Q e B 2 .           ",
"    . . r L p.y.Q Q Q Q Q ) ) _ +.+.+.Q Q Q ^ Z B 5 .           ",
"      . - Q 0.7.<.7.E W ^ ^ ) ) ) ^ Q Q Q ) =.#.& 5 .           ",
"      . $ Q Q Q r.p.1.R / e.u./ Q Q Q Q ) +.+.F X 5 .           ",
"      . . f K Q 3.7...~ ^ i.p.O.X.E Q / +.^ Q Q o 2 o           ",
"      . . . t L ^ ! Q I ! 8.4.t.p.9.) ) ^ Q W O $ 5 .           ",
"          . o : A s 6 O H L Q w.p.q.^ Q Q Q h o 3 # .           ",
"            . . # = = O X d W <.6.o.Q Q Q J $ 6 2 .             ",
"                . o O . . o w P G f 0 6 = # - 2 O               ",
"                        . . O # # 2 4 2 2 & # O                 ",
"                          . . O & & $ + O . .                   "
};
